<mxfile host="app.diagrams.net" agent="Mozilla/5.0 (Windows NT 10.0; Win64; x64) AppleWebKit/537.36 (KHTML, like Gecko) Chrome/119.0.0.0 Safari/537.36" version="25.0.3">
  <diagram name="Page-1" id="b5b7bab2-c9e2-2cf4-8b2a-24fd1a2a6d21">
    <mxGraphModel dx="1050" dy="565" grid="1" gridSize="10" guides="1" tooltips="1" connect="1" arrows="1" fold="1" page="1" pageScale="1" pageWidth="827" pageHeight="1169" background="none" math="0" shadow="0">
      <root>
        <mxCell id="0" />
        <mxCell id="1" parent="0" />
        <mxCell id="6e0c8c40b5770093-6" value="" style="group" parent="1" vertex="1" connectable="0">
          <mxGeometry x="264" y="80" width="150" height="70" as="geometry" />
        </mxCell>
        <mxCell id="6e0c8c40b5770093-4" value="&lt;div&gt;&amp;lt;&amp;lt;sloj&amp;gt;&amp;gt;&lt;/div&gt;Korisnički interfejs" style="shape=folder;fontStyle=1;spacingTop=10;tabWidth=50;tabHeight=17;tabPosition=left;html=1;rounded=0;shadow=0;comic=0;labelBackgroundColor=none;strokeWidth=1;fontFamily=Verdana;fontSize=10;align=center;" parent="6e0c8c40b5770093-6" vertex="1">
          <mxGeometry y="-10" width="130" height="70" as="geometry" />
        </mxCell>
        <mxCell id="xPug0AGMxcq9GsGc4kB6-5" value="&lt;div&gt;&amp;lt;&amp;lt;Tehnologija&amp;gt;&amp;gt;&lt;/div&gt;&lt;div&gt;React JS&lt;/div&gt;" style="shape=folder;fontStyle=1;spacingTop=10;tabWidth=50;tabHeight=17;tabPosition=left;html=1;rounded=0;shadow=0;comic=0;labelBackgroundColor=none;strokeWidth=1;fontFamily=Verdana;fontSize=10;align=center;" vertex="1" parent="1">
          <mxGeometry x="540" y="70" width="130" height="70" as="geometry" />
        </mxCell>
        <mxCell id="xPug0AGMxcq9GsGc4kB6-6" value="&lt;div&gt;&amp;lt;&amp;lt;sloj&amp;gt;&amp;gt;&lt;/div&gt;&lt;div&gt;Aplikaciona logika&lt;/div&gt;" style="shape=folder;fontStyle=1;spacingTop=10;tabWidth=50;tabHeight=17;tabPosition=left;html=1;rounded=0;shadow=0;comic=0;labelBackgroundColor=none;strokeWidth=1;fontFamily=Verdana;fontSize=10;align=center;" vertex="1" parent="1">
          <mxGeometry x="264" y="230" width="130" height="70" as="geometry" />
        </mxCell>
        <mxCell id="xPug0AGMxcq9GsGc4kB6-7" value="&lt;div&gt;&amp;lt;&amp;lt;Tehnologija&amp;gt;&amp;gt;&lt;/div&gt;&lt;div&gt;Node JS&lt;/div&gt;" style="shape=folder;fontStyle=1;spacingTop=10;tabWidth=50;tabHeight=17;tabPosition=left;html=1;rounded=0;shadow=0;comic=0;labelBackgroundColor=none;strokeWidth=1;fontFamily=Verdana;fontSize=10;align=center;" vertex="1" parent="1">
          <mxGeometry x="540" y="230" width="130" height="70" as="geometry" />
        </mxCell>
        <mxCell id="xPug0AGMxcq9GsGc4kB6-8" value="&lt;div&gt;&amp;lt;&amp;lt;sloj&amp;gt;&amp;gt;&lt;/div&gt;&lt;div&gt;Pristup podacima&lt;/div&gt;" style="shape=folder;fontStyle=1;spacingTop=10;tabWidth=50;tabHeight=17;tabPosition=left;html=1;rounded=0;shadow=0;comic=0;labelBackgroundColor=none;strokeWidth=1;fontFamily=Verdana;fontSize=10;align=center;" vertex="1" parent="1">
          <mxGeometry x="264" y="400" width="130" height="70" as="geometry" />
        </mxCell>
        <mxCell id="xPug0AGMxcq9GsGc4kB6-9" value="&amp;lt;&amp;lt;DBMS&amp;gt;&amp;gt;&lt;div&gt;MongoDB&lt;/div&gt;" style="shape=folder;fontStyle=1;spacingTop=10;tabWidth=50;tabHeight=17;tabPosition=left;html=1;rounded=0;shadow=0;comic=0;labelBackgroundColor=none;strokeWidth=1;fontFamily=Verdana;fontSize=10;align=center;" vertex="1" parent="1">
          <mxGeometry x="540" y="400" width="130" height="70" as="geometry" />
        </mxCell>
        <mxCell id="xPug0AGMxcq9GsGc4kB6-10" value="" style="endArrow=open;endSize=12;dashed=1;html=1;rounded=0;exitX=0;exitY=0;exitDx=130;exitDy=43.5;exitPerimeter=0;entryX=0;entryY=0;entryDx=0;entryDy=43.5;entryPerimeter=0;" edge="1" parent="1" source="6e0c8c40b5770093-4" target="xPug0AGMxcq9GsGc4kB6-5">
          <mxGeometry width="160" relative="1" as="geometry">
            <mxPoint x="370" y="340" as="sourcePoint" />
            <mxPoint x="530" y="340" as="targetPoint" />
          </mxGeometry>
        </mxCell>
        <mxCell id="xPug0AGMxcq9GsGc4kB6-13" value="" style="endArrow=open;endSize=12;dashed=1;html=1;rounded=0;exitX=0;exitY=0;exitDx=130;exitDy=70;exitPerimeter=0;entryX=0;entryY=0;entryDx=0;entryDy=0;entryPerimeter=0;" edge="1" parent="1" source="6e0c8c40b5770093-4" target="xPug0AGMxcq9GsGc4kB6-7">
          <mxGeometry width="160" relative="1" as="geometry">
            <mxPoint x="370" y="340" as="sourcePoint" />
            <mxPoint x="530" y="340" as="targetPoint" />
          </mxGeometry>
        </mxCell>
        <mxCell id="xPug0AGMxcq9GsGc4kB6-14" value="" style="endArrow=open;endSize=12;dashed=1;html=1;rounded=0;" edge="1" parent="1">
          <mxGeometry width="160" relative="1" as="geometry">
            <mxPoint x="329" y="140" as="sourcePoint" />
            <mxPoint x="331" y="245" as="targetPoint" />
          </mxGeometry>
        </mxCell>
        <mxCell id="xPug0AGMxcq9GsGc4kB6-15" value="" style="endArrow=open;endSize=12;dashed=1;html=1;rounded=0;exitX=0.5;exitY=1;exitDx=0;exitDy=0;exitPerimeter=0;entryX=0.514;entryY=0.271;entryDx=0;entryDy=0;entryPerimeter=0;" edge="1" parent="1" source="xPug0AGMxcq9GsGc4kB6-6" target="xPug0AGMxcq9GsGc4kB6-8">
          <mxGeometry x="0.177" y="1" width="160" relative="1" as="geometry">
            <mxPoint x="370" y="340" as="sourcePoint" />
            <mxPoint x="530" y="340" as="targetPoint" />
            <mxPoint as="offset" />
          </mxGeometry>
        </mxCell>
        <mxCell id="xPug0AGMxcq9GsGc4kB6-16" value="" style="endArrow=open;endSize=12;dashed=1;html=1;rounded=0;exitX=0;exitY=0;exitDx=130;exitDy=43.5;exitPerimeter=0;entryX=0;entryY=0;entryDx=0;entryDy=43.5;entryPerimeter=0;" edge="1" parent="1" source="xPug0AGMxcq9GsGc4kB6-6" target="xPug0AGMxcq9GsGc4kB6-7">
          <mxGeometry width="160" relative="1" as="geometry">
            <mxPoint x="370" y="340" as="sourcePoint" />
            <mxPoint x="530" y="340" as="targetPoint" />
          </mxGeometry>
        </mxCell>
        <mxCell id="xPug0AGMxcq9GsGc4kB6-17" value="" style="endArrow=open;endSize=12;dashed=1;html=1;rounded=0;exitX=0;exitY=0;exitDx=130;exitDy=17;exitPerimeter=0;entryX=0;entryY=0;entryDx=0;entryDy=70;entryPerimeter=0;" edge="1" parent="1" source="xPug0AGMxcq9GsGc4kB6-8" target="xPug0AGMxcq9GsGc4kB6-7">
          <mxGeometry width="160" relative="1" as="geometry">
            <mxPoint x="370" y="340" as="sourcePoint" />
            <mxPoint x="530" y="340" as="targetPoint" />
          </mxGeometry>
        </mxCell>
        <mxCell id="xPug0AGMxcq9GsGc4kB6-18" value="" style="endArrow=open;endSize=12;dashed=1;html=1;rounded=0;exitX=0;exitY=0;exitDx=130;exitDy=43.5;exitPerimeter=0;entryX=0;entryY=0;entryDx=0;entryDy=43.5;entryPerimeter=0;" edge="1" parent="1" source="xPug0AGMxcq9GsGc4kB6-8" target="xPug0AGMxcq9GsGc4kB6-9">
          <mxGeometry width="160" relative="1" as="geometry">
            <mxPoint x="370" y="340" as="sourcePoint" />
            <mxPoint x="530" y="340" as="targetPoint" />
          </mxGeometry>
        </mxCell>
        <mxCell id="xPug0AGMxcq9GsGc4kB6-21" value="" style="endArrow=open;endSize=12;dashed=1;html=1;rounded=0;exitX=0.5;exitY=1;exitDx=0;exitDy=0;exitPerimeter=0;" edge="1" parent="1" source="xPug0AGMxcq9GsGc4kB6-7" target="xPug0AGMxcq9GsGc4kB6-9">
          <mxGeometry width="160" relative="1" as="geometry">
            <mxPoint x="590" y="360" as="sourcePoint" />
            <mxPoint x="750" y="360" as="targetPoint" />
          </mxGeometry>
        </mxCell>
      </root>
    </mxGraphModel>
  </diagram>
</mxfile>
